<svg width="388" height="388" viewBox="0 0 388 388" fill="none" xmlns="http://www.w3.org/2000/svg">
<g clip-path="url(#clip0_10_151)">
<g filter="url(#filter0_d_10_151)">
<path d="M372.995 132.996C358.445 97.0759 323.51 73.5837 284.71 73.5079C282.664 73.5079 280.618 73.5837 278.648 73.7353C262.582 23.6439 208.929 -3.94051 158.837 12.1251C129.586 21.522 106.624 44.4837 97.2273 73.7353C44.7109 77.1454 4.84996 122.463 8.26012 174.903C10.6093 211.43 33.6468 243.334 67.5211 257.05L69.1125 257.732C91.2406 267.356 105.412 289.56 105.336 314.189V326.314V363.902C105.336 365.948 106.7 367.691 108.594 368.297C163.384 384.363 221.66 384.59 276.526 368.903L278.572 368.297C280.542 367.767 281.906 365.948 281.906 363.902V326.39L282.285 312.825C283.043 288.802 297.441 267.129 318.963 257.732C319.494 257.505 320.024 257.277 320.555 257.05C369.206 237.271 392.698 181.799 372.995 132.996ZM272.737 360.416C220.978 374.966 166.188 374.966 114.354 360.416V349.655C166.188 363.75 220.902 363.75 272.737 349.655V360.416ZM272.737 340.258C220.978 354.808 166.188 354.808 114.354 340.258V329.497C166.188 343.592 220.902 343.592 272.737 329.497V340.258ZM317.069 248.638C316.462 248.866 315.856 249.169 315.25 249.396C290.47 260.233 273.949 285.013 273.116 312.522L272.888 320.024C221.054 334.65 166.188 334.65 114.354 320.1V314.189C114.43 285.923 98.0609 260.46 72.6742 249.396C72.0679 249.169 71.4617 248.866 70.8554 248.638C26.8265 230.754 5.60777 180.511 23.4921 136.406C36.2992 104.73 66.6875 83.6626 100.789 82.6775C102.759 82.6017 104.502 81.3134 105.033 79.3431C117.991 33.5712 165.582 6.89621 211.43 19.8548C240.378 28.0392 262.961 50.7736 270.994 79.722C271.6 81.8439 273.646 83.2837 275.844 83.0564C278.799 82.7532 281.755 82.6017 284.71 82.6017C332.301 82.6017 370.873 121.174 370.873 168.765C370.873 203.927 349.579 235.452 317.069 248.638Z" fill="#C4C4C4" fill-opacity="0.5" shape-rendering="crispEdges"/>
</g>
<g filter="url(#filter1_d_10_151)">
<path d="M188.999 40.6188C162.399 40.6188 137.619 54.0321 123.069 76.3118C121.705 78.4337 122.311 81.2376 124.357 82.6016C126.479 83.9657 129.283 83.3595 130.647 81.3134C143.53 61.6102 165.431 49.7126 188.999 49.7883C191.499 49.7883 193.546 47.7423 193.546 45.2415C193.546 42.7407 191.499 40.6188 188.999 40.6188Z" fill="#C4C4C4" fill-opacity="0.5" shape-rendering="crispEdges"/>
</g>
<g filter="url(#filter2_d_10_151)">
<path d="M78.7371 106.17C55.2449 120.416 40.998 145.879 41.0738 173.388C41.0738 175.888 43.1199 177.934 45.6207 177.934C48.1214 177.934 50.1675 175.888 50.1675 173.388C50.0918 149.138 62.7472 126.555 83.5113 113.975C85.6332 112.687 86.391 109.883 85.1027 107.761C83.8144 105.639 80.9347 104.881 78.7371 106.17Z" fill="#C4C4C4" fill-opacity="0.5" shape-rendering="crispEdges"/>
</g>
<g filter="url(#filter3_d_10_151)">
<path d="M218.705 236.286C216.204 235.983 213.93 237.801 213.703 240.302L205.67 312.901C205.367 315.401 207.186 317.675 209.687 317.902H210.217C212.566 317.902 214.461 316.159 214.764 313.886L222.797 241.363C223.024 238.862 221.205 236.589 218.705 236.286Z" fill="#C4C4C4" fill-opacity="0.5" shape-rendering="crispEdges"/>
</g>
<g filter="url(#filter4_d_10_151)">
<path d="M267.735 244.47C265.31 243.864 262.809 245.38 262.203 247.805L246.062 312.295C245.456 314.72 246.971 317.22 249.396 317.827C251.821 318.433 254.322 316.917 254.928 314.492L271.07 250.002C271.6 247.577 270.16 245.077 267.735 244.47Z" fill="#C4C4C4" fill-opacity="0.5" shape-rendering="crispEdges"/>
</g>
<g filter="url(#filter5_d_10_151)">
<path d="M174.297 240.302C174.07 237.802 171.796 235.983 169.295 236.21C166.795 236.437 164.976 238.711 165.203 241.212V241.287L173.236 313.886C173.463 316.159 175.434 317.902 177.783 317.902H178.313C180.814 317.599 182.633 315.401 182.33 312.901L174.297 240.302Z" fill="#C4C4C4" fill-opacity="0.5" shape-rendering="crispEdges"/>
</g>
<g filter="url(#filter6_d_10_151)">
<path d="M125.797 247.805C125.191 245.38 122.766 243.864 120.341 244.47C117.916 245.077 116.4 247.502 117.006 249.927V250.002L133.148 314.492C133.754 316.917 136.255 318.357 138.68 317.751C141.105 317.145 142.545 314.72 141.938 312.295L125.797 247.805Z" fill="#C4C4C4" fill-opacity="0.5" shape-rendering="crispEdges"/>
</g>
</g>
<defs>
<filter id="filter0_d_10_151" x="4.05664" y="7.54887" width="379.91" height="380.96" filterUnits="userSpaceOnUse" color-interpolation-filters="sRGB">
<feFlood flood-opacity="0" result="BackgroundImageFix"/>
<feColorMatrix in="SourceAlpha" type="matrix" values="0 0 0 0 0 0 0 0 0 0 0 0 0 0 0 0 0 0 127 0" result="hardAlpha"/>
<feOffset dy="4"/>
<feGaussianBlur stdDeviation="2"/>
<feComposite in2="hardAlpha" operator="out"/>
<feColorMatrix type="matrix" values="0 0 0 0 0 0 0 0 0 0 0 0 0 0 0 0 0 0 0.25 0"/>
<feBlend mode="normal" in2="BackgroundImageFix" result="effect1_dropShadow_10_151"/>
<feBlend mode="normal" in="SourceGraphic" in2="effect1_dropShadow_10_151" result="shape"/>
</filter>
<filter id="filter1_d_10_151" x="118.337" y="40.6188" width="79.2085" height="50.7148" filterUnits="userSpaceOnUse" color-interpolation-filters="sRGB">
<feFlood flood-opacity="0" result="BackgroundImageFix"/>
<feColorMatrix in="SourceAlpha" type="matrix" values="0 0 0 0 0 0 0 0 0 0 0 0 0 0 0 0 0 0 127 0" result="hardAlpha"/>
<feOffset dy="4"/>
<feGaussianBlur stdDeviation="2"/>
<feComposite in2="hardAlpha" operator="out"/>
<feColorMatrix type="matrix" values="0 0 0 0 0 0 0 0 0 0 0 0 0 0 0 0 0 0 0.25 0"/>
<feBlend mode="normal" in2="BackgroundImageFix" result="effect1_dropShadow_10_151"/>
<feBlend mode="normal" in="SourceGraphic" in2="effect1_dropShadow_10_151" result="shape"/>
</filter>
<filter id="filter2_d_10_151" x="37.0735" y="105.538" width="52.6606" height="80.3964" filterUnits="userSpaceOnUse" color-interpolation-filters="sRGB">
<feFlood flood-opacity="0" result="BackgroundImageFix"/>
<feColorMatrix in="SourceAlpha" type="matrix" values="0 0 0 0 0 0 0 0 0 0 0 0 0 0 0 0 0 0 127 0" result="hardAlpha"/>
<feOffset dy="4"/>
<feGaussianBlur stdDeviation="2"/>
<feComposite in2="hardAlpha" operator="out"/>
<feColorMatrix type="matrix" values="0 0 0 0 0 0 0 0 0 0 0 0 0 0 0 0 0 0 0.25 0"/>
<feBlend mode="normal" in2="BackgroundImageFix" result="effect1_dropShadow_10_151"/>
<feBlend mode="normal" in="SourceGraphic" in2="effect1_dropShadow_10_151" result="shape"/>
</filter>
<filter id="filter3_d_10_151" x="201.637" y="236.253" width="25.1787" height="89.6494" filterUnits="userSpaceOnUse" color-interpolation-filters="sRGB">
<feFlood flood-opacity="0" result="BackgroundImageFix"/>
<feColorMatrix in="SourceAlpha" type="matrix" values="0 0 0 0 0 0 0 0 0 0 0 0 0 0 0 0 0 0 127 0" result="hardAlpha"/>
<feOffset dy="4"/>
<feGaussianBlur stdDeviation="2"/>
<feComposite in2="hardAlpha" operator="out"/>
<feColorMatrix type="matrix" values="0 0 0 0 0 0 0 0 0 0 0 0 0 0 0 0 0 0 0.25 0"/>
<feBlend mode="normal" in2="BackgroundImageFix" result="effect1_dropShadow_10_151"/>
<feBlend mode="normal" in="SourceGraphic" in2="effect1_dropShadow_10_151" result="shape"/>
</filter>
<filter id="filter4_d_10_151" x="241.928" y="244.337" width="33.251" height="81.6236" filterUnits="userSpaceOnUse" color-interpolation-filters="sRGB">
<feFlood flood-opacity="0" result="BackgroundImageFix"/>
<feColorMatrix in="SourceAlpha" type="matrix" values="0 0 0 0 0 0 0 0 0 0 0 0 0 0 0 0 0 0 127 0" result="hardAlpha"/>
<feOffset dy="4"/>
<feGaussianBlur stdDeviation="2"/>
<feComposite in2="hardAlpha" operator="out"/>
<feColorMatrix type="matrix" values="0 0 0 0 0 0 0 0 0 0 0 0 0 0 0 0 0 0 0.25 0"/>
<feBlend mode="normal" in2="BackgroundImageFix" result="effect1_dropShadow_10_151"/>
<feBlend mode="normal" in="SourceGraphic" in2="effect1_dropShadow_10_151" result="shape"/>
</filter>
<filter id="filter5_d_10_151" x="161.184" y="236.191" width="25.1787" height="89.7113" filterUnits="userSpaceOnUse" color-interpolation-filters="sRGB">
<feFlood flood-opacity="0" result="BackgroundImageFix"/>
<feColorMatrix in="SourceAlpha" type="matrix" values="0 0 0 0 0 0 0 0 0 0 0 0 0 0 0 0 0 0 127 0" result="hardAlpha"/>
<feOffset dy="4"/>
<feGaussianBlur stdDeviation="2"/>
<feComposite in2="hardAlpha" operator="out"/>
<feColorMatrix type="matrix" values="0 0 0 0 0 0 0 0 0 0 0 0 0 0 0 0 0 0 0.25 0"/>
<feBlend mode="normal" in2="BackgroundImageFix" result="effect1_dropShadow_10_151"/>
<feBlend mode="normal" in="SourceGraphic" in2="effect1_dropShadow_10_151" result="shape"/>
</filter>
<filter id="filter6_d_10_151" x="112.873" y="244.337" width="33.2041" height="81.5526" filterUnits="userSpaceOnUse" color-interpolation-filters="sRGB">
<feFlood flood-opacity="0" result="BackgroundImageFix"/>
<feColorMatrix in="SourceAlpha" type="matrix" values="0 0 0 0 0 0 0 0 0 0 0 0 0 0 0 0 0 0 127 0" result="hardAlpha"/>
<feOffset dy="4"/>
<feGaussianBlur stdDeviation="2"/>
<feComposite in2="hardAlpha" operator="out"/>
<feColorMatrix type="matrix" values="0 0 0 0 0 0 0 0 0 0 0 0 0 0 0 0 0 0 0.25 0"/>
<feBlend mode="normal" in2="BackgroundImageFix" result="effect1_dropShadow_10_151"/>
<feBlend mode="normal" in="SourceGraphic" in2="effect1_dropShadow_10_151" result="shape"/>
</filter>
<clipPath id="clip0_10_151">
<rect width="388" height="388" fill="white"/>
</clipPath>
</defs>
</svg>
